<svg width="13" height="18" viewBox="0 0 13 18" fill="none" xmlns="http://www.w3.org/2000/svg">
<path d="M3.65785 0.695374C3.4353 0.695396 3.25489 0.880746 3.25487 1.10939V1.93743C2.86763 1.93743 2.48039 1.93743 2.09315 1.93743C0.957646 1.93743 0.0310059 2.88945 0.0310059 4.05605V15.1376C0.0310059 16.3042 0.957646 17.2562 2.09315 17.2562H10.8643C11.9998 17.2562 12.9265 16.3042 12.9265 15.1376V4.05605C12.9265 2.88945 11.9998 1.93743 10.8643 1.93743C10.4771 1.93743 10.0898 1.93743 9.7026 1.93743V1.10939C9.70258 0.880746 9.52217 0.695396 9.29962 0.695374H3.65785ZM4.06084 1.52341H8.89663V3.1795H4.06084V1.52341ZM2.09315 2.76547C2.48039 2.76547 2.86763 2.76547 3.25487 2.76547V3.59352C3.25489 3.82216 3.4353 4.00751 3.65785 4.00754H9.29962C9.52217 4.00751 9.70258 3.82216 9.7026 3.59352V2.76547C10.0898 2.76547 10.4771 2.76547 10.8643 2.76547C11.5674 2.76547 12.1205 3.33375 12.1205 4.05605V15.1376C12.1205 15.8599 11.5674 16.4281 10.8643 16.4281H2.09315C1.3901 16.4281 0.836972 15.8599 0.836972 15.1376V4.05605C0.836972 3.33375 1.3901 2.76547 2.09315 2.76547Z" fill="#514F4F"/>
<rect x="3.61401" y="0.695374" width="5.37312" height="2.76014" fill="#514F4F"/>
</svg>
