<svg width="18" height="17" viewBox="0 0 18 17" fill="none" xmlns="http://www.w3.org/2000/svg">
<path d="M17.0174 3.06061L14.4394 0.482585C14.1282 0.171369 13.7145 0 13.2744 0C12.8343 0 12.4206 0.171369 12.1094 0.482575L1.31769 11.2742C1.21526 11.3767 1.14923 11.5099 1.12977 11.6534L0.506019 16.2487C0.478216 16.4537 0.547723 16.6598 0.693973 16.806C0.818986 16.9311 0.987767 17 1.16217 17C1.19176 17 1.22153 16.998 1.25128 16.994L5.84654 16.3703C5.9901 16.3508 6.12331 16.2848 6.22574 16.1823L17.0174 5.39067C17.3286 5.07948 17.5 4.66573 17.5 4.22566C17.5 3.78555 17.3286 3.3718 17.0174 3.06061ZM5.44714 15.0879L1.93541 15.5646L2.41208 12.0528L10.0594 4.40557L13.0944 7.44064L5.44714 15.0879ZM16.0809 4.45415L14.0309 6.50413L10.9959 3.46906L13.0458 1.41909C13.1282 1.33672 13.2244 1.32441 13.2744 1.32441C13.3244 1.32441 13.4205 1.33672 13.5029 1.41909L16.081 3.99712C16.1633 4.07948 16.1756 4.17564 16.1756 4.22563C16.1756 4.27561 16.1633 4.37178 16.0809 4.45415Z" fill="#514F4F"/>
</svg>
