<svg width="15" height="16" viewBox="0 0 15 16" fill="none" xmlns="http://www.w3.org/2000/svg">
<path d="M6.68115 0.886896C6.49254 1.39369 6.37647 2.04955 6.18786 2.75013C5.83966 4.07674 5.28108 5.53752 3.64888 6.37224C3.56908 5.96233 3.37322 5.62695 3.09756 5.38846C2.74935 5.09034 2.29959 4.94874 1.84257 4.94874C1.39281 4.94874 0.935796 5.09034 0.580339 5.38846C0.232136 5.69403 5.38184e-07 6.15611 5.89005e-07 6.73743L1.15912e-06 13.2587C1.20994e-06 13.8401 0.232137 14.3021 0.58034 14.6003C0.935797 14.8984 1.39281 15.0474 1.84258 15.0474C2.29959 15.0474 2.74935 14.8984 3.09756 14.6003C3.30793 14.4214 3.46752 14.1829 3.56908 13.8997C3.80847 14.2872 4.18569 14.5779 4.69349 14.7046C6.85525 15.3605 8.44392 15.8449 10.4316 15.9865C11.157 15.994 11.8534 15.83 12.412 15.5691C13.0141 15.2859 13.5001 14.8015 13.6017 14.1158C13.8048 12.6476 14.2255 10.5384 14.3198 8.82425C14.3561 8.14603 14.2836 7.51254 13.9499 7.01319C13.6162 6.5213 13.0359 6.18592 12.1653 6.07412C11.0264 5.91016 9.84399 5.98469 8.86467 6.04431C9.5248 4.57609 10.0181 3.16004 10.0036 2.04955C9.98907 1.45332 9.82948 0.931614 9.45226 0.558968C9.06779 0.193775 8.4947 -7.42631e-07 7.72575 -6.75407e-07C7.06562 0.0074523 6.84074 0.491892 6.68115 0.886896ZM7.7185 0.424815C8.42941 0.424815 8.88643 0.596232 9.16935 0.87199C9.45226 1.1403 9.58284 1.54275 9.59009 2.06446C9.51755 3.16004 9.31443 4.41958 8.21179 6.50639C9.51755 6.31262 10.9176 6.32007 12.1073 6.49149C12.9125 6.58838 13.355 6.86413 13.6089 7.25168C13.8701 7.63924 13.9499 8.16839 13.9136 8.79444C13.8193 10.4639 13.3986 12.5656 13.1882 14.0562C13.1156 14.5704 12.7602 14.9356 12.2451 15.189C11.643 15.4275 10.9974 15.5617 10.4461 15.5691C8.37864 15.5244 6.24589 14.727 4.8023 14.3021C4.03335 14.1084 3.6924 13.5941 3.6924 12.819C3.68515 10.8142 3.68515 8.80935 3.68515 6.81196C5.55674 5.92507 6.21687 4.26307 6.57959 2.86192C6.7682 2.13899 6.89877 1.49058 7.06562 1.04341C7.24698 0.648403 7.26874 0.424816 7.7185 0.424815Z" fill="#514F4F"/>
</svg>
