<svg width="19" height="18" viewBox="0 0 19 18" fill="none" xmlns="http://www.w3.org/2000/svg">
<path d="M10.5225 6.82389C10.127 7.19225 10.127 7.79145 10.5225 8.1608C11.7058 9.26687 11.7058 11.0663 10.5225 12.1725L7.65859 14.8464C6.51197 15.9173 4.51102 15.9173 3.36439 14.8464C2.79108 14.3109 2.47479 13.5989 2.47479 12.841C2.47479 12.083 2.79108 11.3711 3.36439 10.8356C3.75986 10.4673 3.75986 9.86808 3.36439 9.49872C2.96893 9.12936 2.32846 9.12936 1.933 9.49872C0.977119 10.3905 0.450195 11.5779 0.450195 12.841C0.450195 14.1041 0.977119 15.2913 1.933 16.1833C2.88798 17.0761 4.15926 17.5682 5.51149 17.5682C6.86373 17.5682 8.13501 17.0761 9.08999 16.1833L11.9539 13.5095C13.926 11.6665 13.926 8.66683 11.9539 6.82389C11.5584 6.45454 10.9179 6.45454 10.5225 6.82389Z" fill="#455A64"/>
<path d="M16.8779 2.22501C15.9229 1.33223 14.6516 0.840088 13.2994 0.840088C11.9471 0.840088 10.6759 1.33223 9.72089 2.22501L6.85701 4.89883C4.8849 6.74177 4.8849 9.74145 6.85701 11.5844C7.05475 11.7691 7.31373 11.8614 7.57271 11.8614C7.8317 11.8614 8.09068 11.7691 8.28841 11.5844C8.68387 11.216 8.68387 10.6168 8.28841 10.2475C7.10507 9.14142 7.10507 7.34197 8.28841 6.23574L11.1523 3.56192C12.2989 2.49099 14.2999 2.49099 15.4465 3.56192C16.0198 4.09739 16.3361 4.80934 16.3361 5.56729C16.3361 6.32524 16.0198 7.03719 15.4465 7.57265C15.051 7.94101 15.051 8.54021 15.4465 8.90956C15.8419 9.27892 16.4824 9.27892 16.8779 8.90956C17.8338 8.01779 18.3607 6.83043 18.3607 5.56729C18.3607 4.30415 17.8338 3.11695 16.8779 2.22501Z" fill="#455A64"/>
</svg>
