<svg width="18" height="12" viewBox="0 0 18 12" fill="none" xmlns="http://www.w3.org/2000/svg">
<path d="M4.4776 2.20514H17.0149C17.5522 2.20514 17.9104 1.83713 17.9104 1.2851C17.9104 0.73307 17.5522 0.365051 17.0149 0.365051H4.4776C3.94029 0.365051 3.58208 0.73307 3.58208 1.2851C3.58208 1.83713 3.94029 2.20514 4.4776 2.20514ZM17.0149 4.96528H8.05967C7.52236 4.96528 7.16416 5.3333 7.16416 5.88533C7.16416 6.43736 7.52236 6.80538 8.05967 6.80538H17.0149C17.5522 6.80538 17.9104 6.43736 17.9104 5.88533C17.9104 5.3333 17.5522 4.96528 17.0149 4.96528ZM17.0149 9.56552H11.6418C11.1044 9.56552 10.7462 9.93354 10.7462 10.4856C10.7462 11.0376 11.1044 11.4056 11.6418 11.4056H17.0149C17.5522 11.4056 17.9104 11.0376 17.9104 10.4856C17.9104 9.93354 17.5522 9.56552 17.0149 9.56552ZM0.895519 0.365051C0.358208 0.365051 0 0.73307 0 1.2851C0 1.83713 0.358208 2.20514 0.895519 2.20514C1.43283 2.20514 1.79104 1.83713 1.79104 1.2851C1.79104 0.73307 1.43283 0.365051 0.895519 0.365051ZM4.4776 4.96528C3.94029 4.96528 3.58208 5.3333 3.58208 5.88533C3.58208 6.43736 3.94029 6.80538 4.4776 6.80538C5.01491 6.80538 5.37312 6.43736 5.37312 5.88533C5.37312 5.3333 5.01491 4.96528 4.4776 4.96528ZM8.05967 9.56552C7.52236 9.56552 7.16416 9.93354 7.16416 10.4856C7.16416 11.0376 7.52236 11.4056 8.05967 11.4056C8.59699 11.4056 8.95519 11.0376 8.95519 10.4856C8.95519 9.93354 8.59699 9.56552 8.05967 9.56552Z" fill="#706A93"/>
</svg>
