<svg width="15" height="15" viewBox="0 0 15 15" fill="none" xmlns="http://www.w3.org/2000/svg">
<path d="M13.6184 2.23935L12.9891 1.62846L13.6927 0.903706C13.8505 0.741239 13.8466 0.481502 13.6841 0.323783C13.5215 0.165958 13.2619 0.169805 13.104 0.332379L12.4005 1.05703L11.7713 0.446134C11.4515 0.135745 10.9979 -0.00612498 10.5578 0.0663069L7.99434 0.488859C7.69746 0.537804 7.41857 0.683691 7.20898 0.899589L0.526222 7.78328C-0.0170138 8.34286 -0.00415276 9.23956 0.554668 9.78216L4.6189 13.7276C4.89809 13.9987 5.26165 14.1309 5.62327 14.1256C5.98554 14.1202 6.34586 13.9769 6.61764 13.6968L13.3004 6.8131C13.51 6.5971 13.6475 6.31401 13.6877 6.01591L14.0341 3.44104C14.0935 2.99898 13.9382 2.54984 13.6184 2.23935ZM13.221 3.33163L12.8746 5.90661C12.8578 6.03184 12.7999 6.15084 12.7118 6.24167L6.02912 13.1254C5.91843 13.2394 5.77026 13.3034 5.61166 13.3059C5.61155 13.3059 5.61134 13.3059 5.61113 13.3059C5.45306 13.3082 5.30359 13.249 5.19033 13.139L1.1261 9.19354C1.01273 9.08337 0.949013 8.93562 0.946774 8.77734C0.944637 8.61874 1.00426 8.46862 1.11485 8.35471L7.7976 1.47102C7.88577 1.3802 8.00301 1.31885 8.1278 1.29831L10.6913 0.875758C10.7202 0.87095 10.7492 0.868491 10.7781 0.868062C10.9339 0.865753 11.0869 0.925229 11.1999 1.03487L11.8291 1.64565L11.1659 2.32878C10.9943 2.2479 10.8051 2.20626 10.6097 2.20916C10.2726 2.21415 9.95756 2.35022 9.72261 2.59213C9.23788 3.09155 9.24975 3.89233 9.74917 4.37707C9.99108 4.61191 10.31 4.73858 10.6471 4.73358C10.9842 4.72859 11.2993 4.59253 11.5341 4.35062C11.769 4.10871 11.8956 3.78978 11.8906 3.45272C11.8877 3.25728 11.8405 3.06943 11.7546 2.90022L12.4178 2.21708L13.0469 2.82797C13.1809 2.95802 13.2459 3.14635 13.221 3.33163ZM11.0703 3.46477C11.072 3.58289 11.0278 3.69453 10.9455 3.77918C10.8633 3.86383 10.753 3.9115 10.6349 3.91326C10.5169 3.915 10.4053 3.87072 10.3206 3.78844C10.1458 3.61873 10.1416 3.33827 10.3113 3.16345C10.3935 3.0788 10.5038 3.03124 10.6218 3.02949C10.7399 3.02774 10.8516 3.07202 10.9362 3.15419C11.021 3.23647 11.0686 3.34676 11.0703 3.46477Z" fill="#898989"/>
<path d="M5.11628 6.37623C4.95382 6.21841 4.69408 6.22225 4.53636 6.38483L2.67644 8.3006C2.51872 8.46317 2.52257 8.7229 2.68503 8.88062C2.76632 8.95954 2.8719 8.99803 2.97688 8.99648C3.08176 8.99492 3.18615 8.95332 3.26506 8.87203L5.12488 6.95626C5.2827 6.79369 5.27886 6.53406 5.11628 6.37623Z" fill="#898989"/>
<path d="M8.00567 6.17299C7.84321 6.01527 7.58347 6.01912 7.42575 6.18159L4.06217 9.64635C3.90435 9.80893 3.90819 10.0686 4.07077 10.2264C4.15206 10.3053 4.25763 10.3438 4.36251 10.3422C4.46749 10.3407 4.57188 10.2991 4.6508 10.2178L8.01427 6.75302C8.1721 6.59055 8.16825 6.33082 8.00567 6.17299Z" fill="#898989"/>
<path d="M8.81149 7.52704L5.44791 10.9918C5.29009 11.1544 5.29394 11.414 5.45651 11.5718C5.5378 11.6508 5.64337 11.6892 5.74836 11.6877C5.85324 11.6861 5.95763 11.6445 6.03654 11.5632L9.40001 8.09848C9.55784 7.93601 9.55399 7.67628 9.39142 7.51845C9.22895 7.36073 8.96921 7.36458 8.81149 7.52704Z" fill="#898989"/>
</svg>
