<svg width="13" height="13" viewBox="0 0 13 13" fill="none" xmlns="http://www.w3.org/2000/svg">
<path d="M7.86426 6.23046C8.46165 6.2306 9.04566 6.048 9.54242 5.70575C10.0392 5.3635 10.4264 4.87697 10.6551 4.30771C10.8837 3.73845 10.9436 3.11202 10.8271 2.50766C10.7106 1.90329 10.4229 1.34815 10.0005 0.912431C9.5781 0.476715 9.0399 0.180003 8.45399 0.0598245C7.86807 -0.0603543 7.26076 0.00139834 6.70888 0.237272C6.15699 0.473146 5.68531 0.872544 5.35351 1.38495C5.02171 1.89736 4.84468 2.49976 4.84482 3.11595C4.84655 3.94142 5.16523 4.73257 5.73111 5.31626C6.29699 5.89996 7.06399 6.22867 7.86426 6.23046ZM7.95862 3.3034H7.77004C7.57941 3.3034 7.39599 3.22828 7.25729 3.09339C7.11859 2.95851 7.03509 2.77406 7.02388 2.57777C7.01266 2.38148 7.07458 2.18819 7.19696 2.03744C7.31935 1.88668 7.49295 1.78986 7.68225 1.76676V1.47146C7.68225 1.42175 7.7014 1.37407 7.73548 1.33892C7.76956 1.30376 7.81578 1.28402 7.86398 1.28402C7.91218 1.28402 7.9584 1.30376 7.99248 1.33892C8.02656 1.37407 8.0457 1.42175 8.0457 1.47146V1.76633C8.22739 1.78868 8.39484 1.87891 8.51642 2.01995C8.63799 2.161 8.70526 2.3431 8.70551 2.53184C8.70551 2.58155 8.68636 2.62923 8.65228 2.66438C8.6182 2.69954 8.57198 2.71928 8.52378 2.71928C8.47559 2.71928 8.42937 2.69954 8.39528 2.66438C8.3612 2.62923 8.34206 2.58155 8.34206 2.53184C8.34195 2.42698 8.30151 2.32644 8.22963 2.25229C8.15774 2.17814 8.06028 2.13644 7.95862 2.13632H7.77004C7.71906 2.13532 7.6684 2.14481 7.62102 2.16424C7.57364 2.18367 7.53048 2.21265 7.49409 2.24948C7.45769 2.28631 7.42878 2.33026 7.40904 2.37875C7.3893 2.42725 7.37914 2.47932 7.37914 2.53191C7.37914 2.5845 7.3893 2.63657 7.40904 2.68506C7.42878 2.73356 7.45769 2.77751 7.49409 2.81434C7.53048 2.85117 7.57364 2.88015 7.62102 2.89958C7.6684 2.91901 7.71906 2.9285 7.77004 2.9275H7.95862C8.14923 2.92753 8.33263 3.00268 8.47131 3.13758C8.60998 3.27247 8.69345 3.45692 8.70465 3.6532C8.71584 3.84947 8.65392 4.04275 8.53153 4.19349C8.40915 4.34422 8.23556 4.44104 8.04626 4.46413V4.759C8.04626 4.80871 8.02712 4.85639 7.99304 4.89154C7.95896 4.9267 7.91274 4.94645 7.86454 4.94645C7.81634 4.94645 7.77012 4.9267 7.73604 4.89154C7.70196 4.85639 7.68281 4.80871 7.68281 4.759V4.46413C7.50113 4.44178 7.33367 4.35156 7.2121 4.21051C7.09053 4.06946 7.02326 3.88736 7.02301 3.69862C7.02301 3.64891 7.04215 3.60123 7.07623 3.56608C7.11031 3.53093 7.15654 3.51118 7.20473 3.51118C7.25293 3.51118 7.29915 3.53093 7.33323 3.56608C7.36731 3.60123 7.38646 3.64891 7.38646 3.69862C7.38657 3.80351 7.42702 3.90407 7.49894 3.97822C7.57086 4.05237 7.66836 4.09406 7.77004 4.09414H7.95862C8.05906 4.09216 8.15475 4.04961 8.2251 3.97564C8.29546 3.90167 8.33488 3.80218 8.33488 3.69855C8.33488 3.59493 8.29546 3.49543 8.2251 3.42146C8.15475 3.34749 8.05906 3.30494 7.95862 3.30297V3.3034ZM12.6646 8.69481C11.835 9.35449 9.2711 11.94 8.54084 12.364C4.86439 13.6832 4.29125 11.7888 3.51123 11.6794L2.62245 8.4272C2.62007 8.41855 2.617 8.41004 2.6142 8.40153C3.52744 7.75455 4.41371 7.6056 5.46925 7.77041C7.44391 8.07883 6.79264 7.80458 8.38553 7.59897C9.47589 7.4581 9.7851 8.71212 8.71348 9.07605L6.11452 9.95864C6.00269 9.99656 5.73709 10.4878 5.80698 10.3912C6.18022 9.87602 7.62424 10.2959 7.97972 10.1726C9.02814 9.80955 9.43451 9.04866 11.8917 7.62651C12.9484 7.10137 13.3416 8.15684 12.6646 8.69481ZM3.1816 11.8539C3.20203 11.9295 3.19263 12.0103 3.15547 12.0788C3.1183 12.1472 3.05639 12.1977 2.98324 12.2193L2.6792 12.3076L2.02373 8.43152C2.01698 8.3912 2.00645 8.35165 1.99228 8.31343C2.05541 8.31293 2.11696 8.33381 2.16747 8.37289C2.21798 8.41196 2.25465 8.46706 2.27186 8.52972L3.1816 11.8539ZM1.66517 8.49598C1.65474 8.45272 1.63582 8.41213 1.60959 8.37671C1.58336 8.34129 1.55038 8.31179 1.51267 8.29002C1.47496 8.26826 1.43333 8.25469 1.39034 8.25016C1.34735 8.24563 1.30392 8.25023 1.26272 8.26369L0.237367 8.56216C0.15427 8.58658 0.0839243 8.64394 0.0417005 8.7217C-0.000523259 8.79946 -0.0111914 8.89129 0.0120271 8.97714L1.04549 12.7549C1.05711 12.7974 1.07675 12.8372 1.10327 12.8719C1.12978 12.9066 1.16267 12.9355 1.20004 12.9571C1.23741 12.9787 1.27854 12.9925 1.32107 12.9977C1.36361 13.0029 1.40672 12.9994 1.44794 12.9874L2.09656 12.7931C2.17764 12.7655 2.24575 12.7076 2.28744 12.6308C2.32913 12.5539 2.34138 12.4637 2.32176 12.378L1.66517 8.49598ZM1.10797 11.051L1.09399 10.9983C1.08781 10.9744 1.08623 10.9496 1.08935 10.9251C1.09247 10.9007 1.10023 10.8771 1.11219 10.8558C1.12415 10.8344 1.14006 10.8157 1.15903 10.8007C1.178 10.7857 1.19965 10.7747 1.22274 10.7683C1.24583 10.7619 1.26992 10.7603 1.29362 10.7635C1.31733 10.7667 1.34018 10.7747 1.36089 10.787C1.38159 10.7994 1.39974 10.8158 1.41429 10.8354C1.42884 10.8549 1.43952 10.8772 1.4457 10.9011L1.45968 10.9538C1.46587 10.9777 1.46745 11.0025 1.46432 11.027C1.4612 11.0514 1.45344 11.075 1.44149 11.0963C1.42953 11.1177 1.41362 11.1364 1.39465 11.1514C1.37568 11.1664 1.35403 11.1774 1.33094 11.1838C1.30784 11.1902 1.28376 11.1918 1.26005 11.1886C1.23635 11.1854 1.2135 11.1774 1.19279 11.1651C1.17209 11.1527 1.15394 11.1363 1.13939 11.1167C1.12483 11.0972 1.11416 11.0748 1.10797 11.051ZM1.62659 12.3222C1.60351 12.3286 1.57942 12.3303 1.55572 12.327C1.53202 12.3238 1.50916 12.3158 1.48846 12.3035C1.46777 12.2912 1.44963 12.2747 1.4351 12.2552C1.42056 12.2356 1.40992 12.2132 1.40377 12.1894L1.26691 11.6622C1.26073 11.6384 1.25915 11.6136 1.26227 11.5892C1.26539 11.5647 1.27314 11.5412 1.28509 11.5198C1.29704 11.4985 1.31295 11.4797 1.33191 11.4647C1.35087 11.4497 1.37251 11.4387 1.39559 11.4323C1.44221 11.4195 1.49189 11.4262 1.53369 11.4511C1.57549 11.476 1.60599 11.517 1.61848 11.5651L1.75534 12.0921C1.76159 12.1159 1.76322 12.1408 1.76012 12.1653C1.75703 12.1897 1.74928 12.2134 1.73732 12.2347C1.72536 12.2561 1.70942 12.2749 1.69041 12.2899C1.67141 12.3049 1.64972 12.3159 1.62659 12.3222Z" fill="#514F4F"/>
</svg>
