<?xml version="1.0" encoding="UTF-8"?>
<svg id="Layer_1" data-name="Layer 1" xmlns="http://www.w3.org/2000/svg" viewBox="0 0 45 60.02">
  <defs>
    <style>
      .cls-1 {
        fill: #f47821;
      }

      .cls-1, .cls-2 {
        stroke-width: 0px;
      }

      .cls-2 {
        fill: none;
      }
    </style>
  </defs>
  <rect class="cls-1" x="3.16" y="11.79" width=".32" height="36.43"/>
  <g>
    <polygon class="cls-2" points="20.61 32.27 26.74 32.27 23.68 22.83 20.61 32.27"/>
    <path class="cls-1" d="m23.69,17.96h0c-1.55,0-2.93.97-3.46,2.43l-4.33,12.04c-1.18,3.04-2.01,3.35-1.68,5.28.04.24.18.46.29.69.58,1.16,1.66,2.37,3.49,3.65,1-2.98.68-2.79,1.66-5.71h8.29l.1.3c.94,2.91,3.65,4.88,6.71,4.88h0l-7.62-21.14c-.53-1.46-1.91-2.43-3.46-2.43Zm-3.07,14.31l3.06-9.44,3.06,9.44h-6.13Z"/>
    <g>
      <path class="cls-1" d="m41.84,41.52c-2.72,0-4.92-1.76-4.92-3.94v-10.02c0-2.72,2.2-4.92,4.92-4.92h0v18.88h0Z"/>
      <circle class="cls-1" cx="39.93" cy="19.87" r="1.91"/>
    </g>
  </g>
</svg>