<svg width="32" height="24" viewBox="0 0 32 24" fill="none" xmlns="http://www.w3.org/2000/svg">
<path d="M0.540493 23.5899H7.02641C7.16976 23.5899 7.30724 23.533 7.4086 23.4316C7.50996 23.3302 7.56691 23.1928 7.56691 23.0494V1.42968C7.56691 1.28634 7.50996 1.14886 7.4086 1.0475C7.30724 0.946135 7.16976 0.889191 7.02641 0.889191H0.540493C0.397146 0.889191 0.259669 0.946135 0.158307 1.0475C0.0569446 1.14886 0 1.28634 0 1.42968V23.0494C0 23.1928 0.0569446 23.3302 0.158307 23.4316C0.259669 23.533 0.397146 23.5899 0.540493 23.5899ZM1.08099 1.97018H6.48592V22.5089H1.08099V1.97018Z" fill="#777777"/>
<path d="M3.78347 3.59167C3.46277 3.59167 3.14927 3.68677 2.88262 3.86494C2.61597 4.04311 2.40814 4.29635 2.28542 4.59264C2.16269 4.88893 2.13058 5.21495 2.19314 5.52949C2.25571 5.84403 2.41014 6.13295 2.63691 6.35971C2.86368 6.58648 3.1526 6.74091 3.46713 6.80348C3.78167 6.86604 4.10769 6.83393 4.40398 6.71121C4.70027 6.58848 4.95351 6.38065 5.13168 6.114C5.30985 5.84735 5.40495 5.53385 5.40495 5.21315C5.40495 4.78311 5.23411 4.37068 4.93003 4.0666C4.62594 3.76251 4.21351 3.59167 3.78347 3.59167ZM3.78347 5.75365C3.67657 5.75365 3.57207 5.72195 3.48319 5.66256C3.3943 5.60317 3.32503 5.51875 3.28412 5.41999C3.24321 5.32123 3.2325 5.21255 3.25336 5.10771C3.27422 5.00286 3.32569 4.90656 3.40128 4.83097C3.47687 4.75538 3.57318 4.7039 3.67802 4.68305C3.78287 4.66219 3.89154 4.6729 3.99031 4.7138C4.08907 4.75471 4.17348 4.82399 4.23287 4.91287C4.29226 5.00176 4.32396 5.10626 4.32396 5.21315C4.32396 5.3565 4.26702 5.49398 4.16565 5.59534C4.06429 5.6967 3.92682 5.75365 3.78347 5.75365Z" fill="#777777"/>
<path d="M4.86445 19.8065H2.70248C2.55913 19.8065 2.42166 19.8634 2.32029 19.9648C2.21893 20.0661 2.16199 20.2036 2.16199 20.347C2.16199 20.4903 2.21893 20.6278 2.32029 20.7291C2.42166 20.8305 2.55913 20.8874 2.70248 20.8874H4.86445C5.0078 20.8874 5.14528 20.8305 5.24664 20.7291C5.348 20.6278 5.40495 20.4903 5.40495 20.347C5.40495 20.2036 5.348 20.0661 5.24664 19.9648C5.14528 19.8634 5.0078 19.8065 4.86445 19.8065Z" fill="#777777"/>
<path d="M4.86445 18.185H2.70248C2.55913 18.185 2.42166 18.2419 2.32029 18.3433C2.21893 18.4447 2.16199 18.5821 2.16199 18.7255C2.16199 18.8688 2.21893 19.0063 2.32029 19.1077C2.42166 19.209 2.55913 19.266 2.70248 19.266H4.86445C5.0078 19.266 5.14528 19.209 5.24664 19.1077C5.348 19.0063 5.40495 18.8688 5.40495 18.7255C5.40495 18.5821 5.348 18.4447 5.24664 18.3433C5.14528 18.2419 5.0078 18.185 4.86445 18.185Z" fill="#777777"/>
<path d="M9.18844 0.889191C9.04509 0.889191 8.90762 0.946135 8.80626 1.0475C8.70489 1.14886 8.64795 1.28634 8.64795 1.42968V23.0494C8.64795 23.1928 8.70489 23.3302 8.80626 23.4316C8.90762 23.533 9.04509 23.5899 9.18844 23.5899H15.6744C15.8177 23.5899 15.9552 23.533 16.0566 23.4316C16.1579 23.3302 16.2149 23.1928 16.2149 23.0494V1.42968C16.2149 1.28634 16.1579 1.14886 16.0566 1.0475C15.9552 0.946135 15.8177 0.889191 15.6744 0.889191H9.18844ZM15.1339 22.5089H9.72894V1.97018H15.1339V22.5089Z" fill="#777777"/>
<path d="M12.4313 6.83464C12.752 6.83464 13.0655 6.73954 13.3321 6.56137C13.5988 6.3832 13.8066 6.12996 13.9293 5.83367C14.0521 5.53738 14.0842 5.21136 14.0216 4.89682C13.9591 4.58228 13.8046 4.29336 13.5779 4.0666C13.3511 3.83983 13.0622 3.6854 12.7476 3.62283C12.4331 3.56027 12.1071 3.59238 11.8108 3.7151C11.5145 3.83783 11.2613 4.04566 11.0831 4.31231C10.9049 4.57896 10.8098 4.89246 10.8098 5.21316C10.8098 5.6432 10.9806 6.05563 11.2847 6.35972C11.5888 6.6638 12.0013 6.83464 12.4313 6.83464ZM12.4313 4.67266C12.5382 4.67266 12.6427 4.70436 12.7316 4.76375C12.8205 4.82314 12.8897 4.90756 12.9306 5.00632C12.9716 5.10508 12.9823 5.21376 12.9614 5.3186C12.9405 5.42345 12.8891 5.51975 12.8135 5.59534C12.7379 5.67093 12.6416 5.72241 12.5367 5.74326C12.4319 5.76412 12.3232 5.75342 12.2245 5.71251C12.1257 5.6716 12.0413 5.60232 11.9819 5.51344C11.9225 5.42455 11.8908 5.32006 11.8908 5.21316C11.8908 5.06981 11.9477 4.93233 12.0491 4.83097C12.1505 4.72961 12.2879 4.67266 12.4313 4.67266Z" fill="#777777"/>
<path d="M11.3503 20.8874H13.5123C13.6556 20.8874 13.7931 20.8305 13.8945 20.7291C13.9958 20.6278 14.0528 20.4903 14.0528 20.347C14.0528 20.2036 13.9958 20.0661 13.8945 19.9648C13.7931 19.8634 13.6556 19.8065 13.5123 19.8065H11.3503C11.207 19.8065 11.0695 19.8634 10.9681 19.9648C10.8668 20.0661 10.8098 20.2036 10.8098 20.347C10.8098 20.4903 10.8668 20.6278 10.9681 20.7291C11.0695 20.8305 11.207 20.8874 11.3503 20.8874Z" fill="#777777"/>
<path d="M11.3503 19.266H13.5123C13.6556 19.266 13.7931 19.209 13.8945 19.1077C13.9958 19.0063 14.0528 18.8688 14.0528 18.7255C14.0528 18.5821 13.9958 18.4447 13.8945 18.3433C13.7931 18.2419 13.6556 18.185 13.5123 18.185H11.3503C11.207 18.185 11.0695 18.2419 10.9681 18.3433C10.8668 18.4447 10.8098 18.5821 10.8098 18.7255C10.8098 18.8688 10.8668 19.0063 10.9681 19.1077C11.0695 19.209 11.207 19.266 11.3503 19.266Z" fill="#777777"/>
<path d="M23.5168 0.0352193L17.4633 2.35934C17.3305 2.41025 17.2232 2.51141 17.1645 2.64091C17.1058 2.7704 17.1005 2.9178 17.1498 3.05117L24.9005 23.244C24.9397 23.3456 25.0086 23.433 25.0983 23.4947C25.188 23.5564 25.2942 23.5896 25.4031 23.5899C25.4698 23.5894 25.5357 23.5766 25.5977 23.5521L31.6512 21.228C31.7176 21.2028 31.7783 21.1648 31.83 21.1161C31.8817 21.0674 31.9233 21.009 31.9524 20.9443C31.9815 20.8795 31.9976 20.8097 31.9997 20.7387C32.0018 20.6678 31.9899 20.5971 31.9647 20.5307L24.214 0.348705C24.1888 0.282335 24.1508 0.221577 24.1021 0.169901C24.0535 0.118226 23.9951 0.0766454 23.9303 0.0475345C23.8656 0.0184236 23.7958 0.00235256 23.7248 0.000239501C23.6538 -0.00187356 23.5832 0.0100127 23.5168 0.0352193ZM25.7166 22.3522L18.3767 3.17549L23.4249 1.24052L30.7594 20.4118L25.7166 22.3522Z" fill="#777777"/>
<path d="M21.4576 3.72137C21.1585 3.83527 20.8997 4.03517 20.714 4.29588C20.5282 4.5566 20.4238 4.86646 20.4139 5.18642C20.4039 5.50638 20.4889 5.82213 20.6581 6.09386C20.8274 6.3656 21.0732 6.58117 21.3647 6.71341C21.6563 6.84564 21.9804 6.88863 22.2963 6.83696C22.6122 6.78528 22.9058 6.64125 23.14 6.42301C23.3742 6.20478 23.5385 5.92211 23.6124 5.61062C23.6862 5.29913 23.6661 4.97276 23.5548 4.67264C23.4803 4.47192 23.3668 4.28795 23.2208 4.13132C23.0749 3.97469 22.8994 3.84852 22.7044 3.76008C22.5094 3.67164 22.2989 3.62269 22.0849 3.61605C21.8709 3.6094 21.6577 3.6452 21.4576 3.72137ZM22.5386 5.45636C22.4957 5.54143 22.431 5.61364 22.3511 5.66565C22.2713 5.71767 22.1791 5.74764 22.0839 5.75254C21.9887 5.75743 21.8939 5.73707 21.8092 5.69352C21.7244 5.64997 21.6526 5.58478 21.6012 5.50456C21.5497 5.42433 21.5204 5.33193 21.5162 5.23672C21.512 5.14151 21.533 5.04687 21.5771 4.96241C21.6213 4.87794 21.687 4.80665 21.7675 4.75576C21.8481 4.70487 21.9407 4.6762 22.036 4.67264C22.1266 4.67192 22.2159 4.69399 22.2958 4.73683C22.3756 4.77966 22.4434 4.84188 22.4929 4.91776C22.5424 4.99365 22.5721 5.08076 22.5791 5.1711C22.5862 5.26144 22.5704 5.35209 22.5332 5.43473L22.5386 5.45636Z" fill="#777777"/>
<path d="M26.2571 19.266C26.1907 19.2915 26.1301 19.3299 26.0785 19.3789C26.027 19.4279 25.9856 19.4866 25.9567 19.5516C25.9279 19.6166 25.9121 19.6866 25.9103 19.7577C25.9085 19.8288 25.9208 19.8995 25.9463 19.9659C25.9979 20.0999 26.1007 20.208 26.2319 20.2663C26.2969 20.2951 26.367 20.3109 26.4381 20.3127C26.5091 20.3145 26.5799 20.3022 26.6463 20.2767L28.6461 19.4822C28.7801 19.4306 28.8882 19.3278 28.9464 19.1966C29.0047 19.0653 29.0085 18.9163 28.9569 18.7822C28.9053 18.6482 28.8025 18.5402 28.6713 18.4819C28.54 18.4236 28.391 18.4198 28.2569 18.4714L26.2571 19.266Z" fill="#777777"/>
<path d="M25.8735 18.7795C25.9401 18.779 26.0061 18.7662 26.068 18.7417L28.1057 17.9688C28.1721 17.9432 28.2328 17.9049 28.2843 17.8559C28.3358 17.8069 28.3772 17.7482 28.4061 17.6832C28.4349 17.6182 28.4507 17.5482 28.4525 17.4771C28.4543 17.406 28.442 17.3352 28.4165 17.2689C28.3909 17.2025 28.3526 17.1418 28.3036 17.0903C28.2546 17.0387 28.1959 16.9974 28.1309 16.9685C28.0659 16.9396 27.9958 16.9239 27.9248 16.9221C27.8537 16.9203 27.7829 16.9325 27.7166 16.9581L25.7005 17.731C25.5838 17.7771 25.4868 17.8623 25.4261 17.9721C25.3654 18.0819 25.3448 18.2094 25.3678 18.3328C25.3908 18.4561 25.456 18.5676 25.5522 18.6481C25.6484 18.7286 25.7696 18.7732 25.8951 18.7741L25.8735 18.7795Z" fill="#777777"/>
</svg>
