<svg width="32" height="32" viewBox="0 0 32 32" fill="none" xmlns="http://www.w3.org/2000/svg">
<rect width="32" height="32" rx="2" fill="#656262"/>
<path d="M7.25 17.25H14.75V24.75C14.75 25.4394 15.3106 26 16 26C16.6894 26 17.25 25.4394 17.25 24.75V17.25H24.75C25.4394 17.25 26 16.6894 26 16C26 15.3106 25.4394 14.75 24.75 14.75H17.25V7.25C17.25 6.56062 16.6894 6 16 6C15.3106 6 14.75 6.56062 14.75 7.25V14.75H7.25C6.56062 14.75 6 15.3106 6 16C6 16.6894 6.56062 17.25 7.25 17.25Z" fill="white"/>
<path d="M7.25 17.25H14.75V24.75C14.75 25.4394 15.3106 26 16 26C16.6894 26 17.25 25.4394 17.25 24.75V17.25H24.75C25.4394 17.25 26 16.6894 26 16C26 15.3106 25.4394 14.75 24.75 14.75H17.25V7.25C17.25 6.56062 16.6894 6 16 6C15.3106 6 14.75 6.56062 14.75 7.25V14.75H7.25C6.56062 14.75 6 15.3106 6 16C6 16.6894 6.56062 17.25 7.25 17.25Z" stroke="white"/>
</svg>
