<svg width="16" height="16" viewBox="0 0 16 16" fill="none" xmlns="http://www.w3.org/2000/svg">
<path fill-rule="evenodd" clip-rule="evenodd" d="M8.01705 4.77422e-05C7.18493 -0.00545116 6.42007 0.464458 6.04938 1.20775L5.70558 1.89543C5.57009 1.94574 5.4368 2.00085 5.30494 2.06024L4.57612 1.81728C3.78877 1.55443 2.91487 1.76282 2.33142 2.35577C1.75639 2.94025 1.559 3.80073 1.81855 4.57652L2.06149 5.30398C2.00083 5.43678 1.94408 5.57096 1.89243 5.70749L1.20765 6.04991C0.465202 6.42026 -0.00602842 7.18445 5.82661e-05 8.01633C0.0060598 8.83649 0.474546 9.58467 1.20623 9.95007L1.89527 10.2968C1.94578 10.4323 2.0007 10.5656 2.06007 10.6974L1.81855 11.4249C1.55598 12.2116 1.76369 13.0848 2.35557 13.6684C2.93955 14.2442 3.80001 14.4417 4.57612 14.1827L5.30352 13.9412C5.43614 14.0016 5.57063 14.0571 5.707 14.1088L6.04938 14.7922C6.42007 15.5356 7.18493 16.0064 8.01705 15.9999C8.83698 15.9944 9.58538 15.5247 9.95062 14.7922L10.293 14.1074C10.4302 14.0565 10.5659 14.0014 10.6993 13.9412L11.4239 14.1827C12.2 14.4417 13.0605 14.2443 13.6444 13.6684C14.2367 13.0844 14.4447 12.2105 14.1815 11.4235L13.9399 10.696C14.0003 10.5638 14.0561 10.4298 14.1076 10.2939L14.7923 9.95007C15.5246 9.58486 15.9939 8.83685 15.9999 8.01633C16.006 7.18443 15.5348 6.42026 14.7923 6.04991L14.1047 5.70607C14.0542 5.5697 13.9995 5.43528 13.9399 5.30256L14.1815 4.57652V4.5751C14.4403 3.79967 14.2433 2.93989 13.6686 2.35577C13.0851 1.76271 12.2112 1.55451 11.4239 1.81728L10.6951 2.06024C10.5628 2.00003 10.429 1.944 10.293 1.89258L9.95062 1.20775C9.58538 0.475346 8.83702 0.00645398 8.01705 4.77422e-05ZM8.00568 1.45497C8.27926 1.45709 8.52643 1.61224 8.64926 1.85848L9.11098 2.78202C9.15433 2.86888 9.21463 2.94619 9.28831 3.00939C9.362 3.07259 9.44759 3.1204 9.54004 3.15001C9.8141 3.23745 10.0802 3.34715 10.3356 3.47964C10.4218 3.52452 10.5162 3.55166 10.613 3.55947C10.7099 3.56728 10.8074 3.55559 10.8996 3.52511L11.8828 3.19832H11.8842C12.1491 3.10979 12.4369 3.17906 12.6315 3.37592C12.8231 3.57086 12.8878 3.85519 12.8005 4.11617V4.11759L12.4752 5.09654C12.4449 5.18802 12.433 5.28462 12.4403 5.38072C12.4477 5.47682 12.474 5.57051 12.5178 5.65634C12.6487 5.91232 12.7573 6.17908 12.8432 6.45343C12.8724 6.54679 12.9202 6.63328 12.9837 6.70774C13.0472 6.7822 13.125 6.8431 13.2125 6.88678L14.1417 7.35139C14.3916 7.47594 14.5472 7.72787 14.5451 8.00496C14.5432 8.27799 14.3881 8.52572 14.1417 8.6486H14.1403L13.2168 9.11178C13.1302 9.15529 13.0532 9.21565 12.9902 9.28934C12.9273 9.36302 12.8797 9.44854 12.8503 9.54087C12.7623 9.81499 12.6522 10.0812 12.5192 10.3365C12.4742 10.4229 12.4469 10.5175 12.4391 10.6147C12.4313 10.7118 12.4431 10.8095 12.4738 10.902L12.8005 11.8838C12.8891 12.1486 12.8219 12.4364 12.6244 12.6312C12.4297 12.8231 12.1453 12.8888 11.8842 12.8017H11.8828L10.9039 12.4763C10.8122 12.4458 10.7154 12.4338 10.619 12.4411C10.5227 12.4485 10.4287 12.4749 10.3427 12.5189C10.0864 12.6503 9.82051 12.7595 9.54572 12.8457C9.45236 12.875 9.36588 12.9228 9.29142 12.9863C9.21697 13.0497 9.15608 13.1276 9.11241 13.2151L8.64926 14.1415C8.52643 14.3878 8.2793 14.5429 8.00568 14.545C7.72789 14.5472 7.47544 14.3916 7.35074 14.1415L6.88902 13.2194C6.84567 13.1325 6.78537 13.0552 6.71169 12.992C6.638 12.9288 6.55241 12.881 6.45997 12.8514C6.18544 12.7634 5.91869 12.6534 5.66295 12.5203C5.57655 12.4753 5.48198 12.448 5.38485 12.4402C5.28772 12.4324 5.19001 12.4442 5.09752 12.4749L4.11582 12.8017C3.85475 12.8888 3.57027 12.8236 3.37563 12.6312C3.17812 12.4365 3.11088 12.1486 3.19947 11.8838V11.8824L3.52481 10.9034C3.55511 10.8117 3.56682 10.7148 3.55926 10.6184C3.5517 10.522 3.52502 10.4281 3.48076 10.3422C3.34954 10.0868 3.24035 9.82051 3.154 9.54656C3.1249 9.4537 3.07746 9.36764 3.0145 9.29345C2.95154 9.21925 2.87434 9.15845 2.78746 9.11463L1.85975 8.6486H1.85833C1.61195 8.5257 1.45685 8.27812 1.45485 8.00496C1.45282 7.72787 1.60845 7.47602 1.85833 7.35139L2.78178 6.88962C2.86864 6.84627 2.94594 6.78597 3.00914 6.71227C3.07233 6.63858 3.12014 6.55299 3.14974 6.46053C3.23769 6.18641 3.34784 5.92024 3.48076 5.66487C3.52563 5.57865 3.55277 5.48432 3.56058 5.38744C3.56839 5.29056 3.55671 5.19309 3.52623 5.1008L3.19947 4.11759V4.11617C3.11216 3.85525 3.17687 3.57072 3.36853 3.37592C3.56311 3.17824 3.85089 3.11006 4.11582 3.19832L5.0961 3.52511C5.18778 3.55563 5.28462 3.56759 5.38097 3.56027C5.47732 3.55295 5.57125 3.52651 5.65727 3.48248C5.91281 3.35161 6.17896 3.24301 6.45286 3.15712C6.54622 3.12784 6.63271 3.08004 6.70716 3.01657C6.78161 2.95309 6.8425 2.87525 6.88617 2.7877L7.35074 1.85848C7.47544 1.60828 7.72789 1.4528 8.00568 1.45497ZM8.00284 4.36339C6.00281 4.36339 4.3616 5.99908 4.3616 7.99928C4.36158 9.99949 6.0028 11.6394 8.00284 11.6394C10.0029 11.6394 11.637 9.99949 11.637 7.99928C11.637 5.99908 10.0029 4.36339 8.00284 4.36339ZM8.00284 5.81832C9.21665 5.81832 10.1822 6.78537 10.1822 7.99928C10.1822 9.21319 9.21665 10.1845 8.00284 10.1845C6.78903 10.1845 5.81638 9.21319 5.81639 7.99928C5.81639 6.78537 6.78904 5.81832 8.00284 5.81832Z" fill="#777777"/>
</svg>
