<?xml version="1.0" encoding="UTF-8"?>
<svg id="Layer_1" data-name="Layer 1" xmlns="http://www.w3.org/2000/svg" viewBox="0 0 220 56">
  <defs>
    <style>
      .cls-1 {
        fill: #f47821;
      }

      .cls-1, .cls-2, .cls-3 {
        stroke-width: 0px;
      }

      .cls-2 {
        fill: none;
      }

      .cls-3 {
        fill: #231f20;
      }
    </style>
  </defs>
  <g>
    <path class="cls-3" d="m16.91,34.4v-13.09h4.41c1.37,0,2.54.26,3.5.77.97.52,1.7,1.26,2.21,2.24.51.98.76,2.16.76,3.53s-.25,2.56-.76,3.54c-.51.98-1.25,1.73-2.21,2.24-.97.51-2.13.77-3.49.77h-4.41Zm1.75-1.47h2.27c1.15,0,2.09-.18,2.84-.55.75-.37,1.3-.93,1.67-1.68.37-.76.55-1.71.55-2.86s-.19-2.09-.56-2.84c-.37-.75-.93-1.31-1.68-1.68-.75-.37-1.69-.55-2.82-.55h-2.27v10.16Z"/>
    <path class="cls-3" d="m32.99,34.4l4.9-13.09h1.85l4.83,13.09h-1.81l-1.25-3.67h-5.43l-1.3,3.67h-1.8Zm3.58-5.14h4.46l-2.22-6.22-2.24,6.22Z"/>
    <path class="cls-3" d="m52.6,34.4v-11.63h-3.73v-1.47h9.18v1.47h-3.72v11.63h-1.74Z"/>
    <path class="cls-3" d="m62.36,34.4l4.9-13.09h1.85l4.83,13.09h-1.81l-1.25-3.67h-5.43l-1.3,3.67h-1.8Zm3.58-5.14h4.46l-2.22-6.22-2.24,6.22Z"/>
    <path class="cls-3" d="m83.8,34.58c-.93,0-1.78-.14-2.53-.43-.75-.29-1.35-.73-1.79-1.34-.44-.61-.67-1.4-.67-2.37h1.76c0,.69.15,1.24.45,1.63s.7.67,1.2.84c.5.16,1.05.24,1.64.24.55,0,1.06-.08,1.51-.25.46-.17.82-.42,1.09-.75s.41-.76.41-1.29c0-.45-.11-.83-.32-1.12-.21-.29-.57-.55-1.07-.76s-1.16-.43-2-.65c-.99-.26-1.8-.54-2.43-.85s-1.11-.69-1.42-1.15c-.31-.46-.46-1.04-.46-1.75,0-.75.18-1.37.53-1.88.35-.51.85-.9,1.51-1.16.66-.27,1.43-.4,2.33-.4.84,0,1.61.14,2.32.41s1.26.68,1.68,1.23c.42.54.63,1.22.63,2.03h-1.75c0-.74-.27-1.3-.82-1.68-.55-.38-1.23-.57-2.04-.57s-1.49.17-1.95.5c-.46.33-.7.82-.7,1.46,0,.38.1.7.3.96.2.26.55.49,1.04.7.49.21,1.17.42,2.05.65,1.01.27,1.83.56,2.47.88s1.1.71,1.4,1.2c.3.49.45,1.13.45,1.92,0,.84-.21,1.54-.63,2.1-.42.55-1,.97-1.72,1.25-.73.28-1.55.42-2.46.42Z"/>
    <path class="cls-3" d="m95.1,34.4v-13.09h8.36v1.46h-6.61v4.17h6.08v1.44h-6.08v4.56h6.61v1.46h-8.36Z"/>
    <path class="cls-3" d="m110.23,34.4v-13.09h1.79l7.18,10.42v-10.42h1.66v13.09h-1.79l-7.19-10.44v10.44h-1.65Z"/>
    <path class="cls-3" d="m132.36,34.58c-.93,0-1.78-.14-2.53-.43-.75-.29-1.35-.73-1.79-1.34s-.67-1.4-.67-2.37h1.76c0,.69.15,1.24.45,1.63s.7.67,1.2.84c.5.16,1.05.24,1.64.24.55,0,1.06-.08,1.51-.25.46-.17.82-.42,1.09-.75s.41-.76.41-1.29c0-.45-.11-.83-.32-1.12-.21-.29-.57-.55-1.07-.76-.5-.22-1.16-.43-2-.65-.99-.26-1.8-.54-2.43-.85s-1.11-.69-1.42-1.15c-.31-.46-.46-1.04-.46-1.75,0-.75.18-1.37.53-1.88.35-.51.85-.9,1.51-1.16.65-.27,1.43-.4,2.33-.4.84,0,1.61.14,2.32.41.7.27,1.26.68,1.68,1.23.42.54.63,1.22.63,2.03h-1.75c0-.74-.27-1.3-.82-1.68s-1.23-.57-2.04-.57-1.49.17-1.95.5c-.46.33-.7.82-.7,1.46,0,.38.1.7.3.96.2.26.55.49,1.04.7.49.21,1.17.42,2.05.65,1.01.27,1.83.56,2.47.88.63.31,1.1.71,1.4,1.2.3.49.45,1.13.45,1.92,0,.84-.21,1.54-.63,2.1-.42.55-1,.97-1.72,1.25-.73.28-1.55.42-2.46.42Z"/>
    <path class="cls-3" d="m143.67,34.4v-13.09h8.36v1.46h-6.61v4.17h6.08v1.44h-6.08v4.56h6.61v1.46h-8.36Z"/>
  </g>
  <rect class="cls-1" x="162.69" y="9.64" width=".32" height="36.43"/>
  <g>
    <polygon class="cls-2" points="180.15 30.11 186.28 30.11 183.22 20.67 180.15 30.11"/>
    <path class="cls-1" d="m183.23,15.81h0c-1.55,0-2.93.97-3.46,2.43l-4.33,12.04c-1.18,3.04-2.01,3.35-1.68,5.28.04.24.18.46.29.69.58,1.16,1.66,2.37,3.49,3.65,1-2.98.68-2.79,1.66-5.71h8.29l.1.3c.94,2.91,3.65,4.88,6.71,4.88h0l-7.62-21.14c-.53-1.46-1.91-2.43-3.46-2.43Zm-3.07,14.31l3.06-9.44,3.06,9.44h-6.13Z"/>
    <g>
      <path class="cls-1" d="m201.38,39.37c-2.72,0-4.92-1.76-4.92-3.94v-10.02c0-2.72,2.2-4.92,4.92-4.92h0v18.88h0Z"/>
      <circle class="cls-1" cx="199.47" cy="17.72" r="1.91"/>
    </g>
  </g>
</svg>