<svg width="32" height="32" viewBox="0 0 32 32" fill="none" xmlns="http://www.w3.org/2000/svg">
<rect width="32" height="32" rx="4" fill="#D9D9D9"/>
<path d="M11.9612 13.4704C11.9612 13.8838 12.2963 14.2184 12.7092 14.2184H19.2483C19.6612 14.2184 19.9963 13.8838 19.9963 13.4704C19.9963 13.057 19.6612 12.7224 19.2483 12.7224H12.7092C12.2963 12.7224 11.9612 13.057 11.9612 13.4704Z" fill="#455A64"/>
<path d="M19.2488 16.7119H12.7092C12.2963 16.7119 11.9612 17.047 11.9612 17.4599C11.9612 17.8728 12.2963 18.2079 12.7092 18.2079H19.2483C19.6612 18.2079 19.9963 17.8728 19.9963 17.4599C19.9963 17.047 19.6617 16.7119 19.2488 16.7119Z" fill="#455A64"/>
<path d="M19.2488 20.7013H12.7092C12.2963 20.7013 11.9612 21.0364 11.9612 21.4493C11.9612 21.8622 12.2963 22.1973 12.7092 22.1973H19.2483C19.6612 22.1973 19.9963 21.8622 19.9963 21.4493C19.9963 21.0364 19.6617 20.7013 19.2488 20.7013Z" fill="#455A64"/>
<path d="M23.7387 9.70001L21.2403 7.20165L19.2506 5.21194C19.2067 5.16805 19.1559 5.13464 19.1045 5.10372L19.0277 5.02842H18.927C18.7953 4.99053 18.6567 4.99053 18.5215 5.02842H10.3612C9.05919 5.02842 8 6.08811 8 7.38965V24.5376C8 25.8396 9.05919 26.8988 10.3612 26.8988H21.5959C22.8979 26.8988 23.9571 25.8396 23.9571 24.5376V9.91943L23.7387 9.70001ZM19.4695 7.57017L21.3954 9.4811H19.4695V7.57017ZM22.4616 24.5376C22.4616 25.0148 22.0736 25.4028 21.5964 25.4028H10.3612C9.88399 25.4028 9.49603 25.0148 9.49603 24.5376V7.39015C9.49603 6.91292 9.88399 6.52495 10.3612 6.52495H17.9735V10.2291C17.9735 10.6425 18.3086 10.9771 18.7215 10.9771H22.4616V24.5376Z" fill="#455A64"/>
</svg>
