<svg width="12" height="16" viewBox="0 0 12 16" fill="none" xmlns="http://www.w3.org/2000/svg">
<g clip-path="url(#clip0_1_1133)">
<path d="M9.25257 1.0669C9.71101 1.06785 10.1504 1.25898 10.4742 1.59835C10.7981 1.93772 10.98 2.39761 10.98 2.87708V11.7679C10.9791 12.2468 10.7968 12.7058 10.473 13.0444C10.1493 13.383 9.71043 13.5736 9.25257 13.5746H4.56342C4.10525 13.5736 3.66604 13.3831 3.34175 13.0446C3.01745 12.7061 2.83441 12.2471 2.83262 11.7679V2.87708C2.83352 2.39728 3.01616 1.9374 3.34055 1.59813C3.66495 1.25886 4.10466 1.06784 4.56342 1.0669H9.25257ZM9.25257 0H4.56342C3.83383 0 3.13412 0.30312 2.61823 0.842678C2.10233 1.38224 1.8125 2.11403 1.8125 2.87708V11.7679C1.8134 12.5304 2.10363 13.2613 2.61943 13.8001C3.13523 14.3388 3.83442 14.6415 4.56342 14.6415H9.25257C9.98125 14.6415 10.6801 14.3387 11.1954 13.7998C11.7106 13.2609 12.0001 12.5301 12.0001 11.7679V2.87708C12.0001 2.11465 11.7107 1.38339 11.1956 0.843935C10.6804 0.304479 9.98157 0.00094244 9.25257 0Z" fill="white"/>
<path d="M2.38028 16.0035C1.74899 16.0035 1.14356 15.7413 0.697167 15.2744C0.250779 14.8075 0 14.1743 0 13.5141L0 2.9162H0.928308V13.5141C0.926484 13.7139 0.96282 13.912 1.03518 14.0969C1.10755 14.2819 1.21449 14.4498 1.34973 14.5909C1.48496 14.732 1.64578 14.8435 1.82275 14.9187C1.99971 14.994 2.18926 15.0315 2.38028 15.0291H8.535V16.0035H2.38028Z" fill="white"/>
</g>
<defs>
<clipPath id="clip0_1_1133">
<rect width="12" height="16" fill="white"/>
</clipPath>
</defs>
</svg>
