<svg width="13" height="17" viewBox="0 0 13 17" fill="none" xmlns="http://www.w3.org/2000/svg">
<path d="M5.625 12.75C5.97019 12.75 6.25 12.4702 6.25 12.125V8.625C6.25 8.27981 5.97019 8 5.625 8C5.27981 8 5 8.27981 5 8.625V12.125C5 12.4702 5.27981 12.75 5.625 12.75Z" fill="#514F4F"/>
<path d="M7.875 8C7.52981 8 7.25 8.27981 7.25 8.625V12.125C7.25 12.4702 7.52981 12.75 7.875 12.75C8.22019 12.75 8.5 12.4702 8.5 12.125V8.625C8.5 8.27981 8.22019 8 7.875 8Z" fill="#514F4F"/>
<path d="M0.471015 5H12.529C12.789 5 13 4.73543 13 4.40945V3.14961C13 2.82362 12.789 2.55906 12.529 2.55906H8.72947V1.77165C8.72947 0.794764 8.09558 0 7.31643 0H5.68358C4.90442 0 4.27053 0.794764 4.27053 1.77165V2.55906H0.471015C0.211015 2.55906 0 2.82362 0 3.14961V4.40945C0 4.73543 0.211015 5 0.471015 5ZM5.21256 1.77165C5.21256 1.44602 5.42386 1.1811 5.68358 1.1811H7.31643C7.57614 1.1811 7.78744 1.44602 7.78744 1.77165V2.55906H5.21256V1.77165Z" fill="#514F4F"/>
<path d="M2.24967 15.2121L0.821095 5.21213C0.692002 4.30848 1.39319 3.5 2.30602 3.5H10.694C11.6068 3.5 12.308 4.30848 12.1789 5.21213L10.7503 15.2121C10.6448 15.9511 10.0119 16.5 9.26541 16.5H3.73459C2.98811 16.5 2.35523 15.9511 2.24967 15.2121Z" stroke="#514F4F"/>
</svg>
