<svg width="18" height="19" viewBox="0 0 18 19" fill="none" xmlns="http://www.w3.org/2000/svg">
<path d="M12.0151 6.22208C12.2082 6.22208 12.3647 6.06071 12.3647 5.86165C12.3647 5.66259 12.2082 5.50122 12.0151 5.50122C11.822 5.50122 11.6655 5.66259 11.6655 5.86165C11.6655 6.06071 11.822 6.22208 12.0151 6.22208Z" fill="#455A64"/>
<path d="M12.0151 1.53656C11.2423 1.53656 10.6167 2.16257 10.6167 2.94033C10.6167 3.07312 10.7087 3.16797 10.8375 3.16797C10.9663 3.16797 11.0583 3.07312 11.0583 2.94033C11.0583 2.40917 11.4815 1.99184 11.9967 1.99184C12.5119 1.99184 12.9351 2.42814 12.9351 2.94033C12.9351 3.45252 12.5119 3.88882 11.9967 3.88882C11.8679 3.88882 11.7759 3.98367 11.7759 4.11646V4.79938C11.7759 4.93217 11.8679 5.02702 11.9967 5.02702C12.1255 5.02702 12.2175 4.93217 12.2175 4.79938V4.32513C12.8799 4.21131 13.3767 3.62325 13.3767 2.94033C13.3951 2.18154 12.7695 1.53656 12.0151 1.53656Z" fill="#455A64"/>
<path d="M12.0889 15.9916C12.0889 15.9347 11.7209 11.325 6.05364 11.325C0.294403 11.325 0.0184001 15.9726 0 16.0295V17.3954C0 17.7748 0.294402 18.0973 0.680805 18.0973H11.4081C11.7761 18.0973 12.0889 17.7937 12.0889 17.3954V15.9916Z" fill="#455A64"/>
<path d="M14.0208 0H10.3224C8.3904 0 6.80798 1.47965 6.53198 3.37664C6.71598 3.41458 6.88159 3.47149 7.06559 3.5284C7.26799 1.85905 8.648 0.550127 10.3224 0.550127H14.0392C15.8608 0.550127 17.3329 2.06772 17.3329 3.94574C17.3329 5.82375 15.8608 7.34134 14.0392 7.34134H12.88L10.7456 8.97275V7.34134H10.304C9.99121 7.34134 9.6968 7.28443 9.4024 7.20855C9.4024 7.24649 9.4024 7.28443 9.4024 7.32237C9.4024 7.47413 9.384 7.62589 9.384 7.77765C9.6416 7.85353 9.91761 7.89147 10.1936 7.89147V10.073L13.064 7.89147H14.0208C16.1368 7.89147 17.8481 6.12727 17.8481 3.94574C17.8665 1.7642 16.1368 0 14.0208 0Z" fill="#455A64"/>
<path d="M5.9062 10.7369C7.56222 10.7369 8.90543 9.20037 8.90543 7.32235C8.90543 5.44434 7.56222 3.90778 5.9062 3.90778C4.25019 3.90778 2.90698 5.44434 2.90698 7.32235C2.90698 9.20037 4.25019 10.7369 5.9062 10.7369Z" fill="#455A64"/>
</svg>
