<svg width="16" height="14" viewBox="0 0 16 14" fill="none" xmlns="http://www.w3.org/2000/svg">
<path d="M8.53455 9.05712C8.53057 9.05894 8.52849 9.06012 8.52848 9.0601C8.52847 9.06009 8.53028 9.05901 8.53407 9.05643L8.53455 9.05712ZM8.53455 9.05712L8.66847 9.25265L8.66849 9.25268L8.81662 9.46894L8.66865 9.25268L8.66864 9.25266L8.53455 9.05712ZM1.29325 11.0961C1.47189 7.05228 4.58313 3.8273 8.14881 3.57717C8.59202 3.54639 8.92114 3.16601 8.92114 2.74068V1.20314L14.4605 4.99723L8.92593 8.78804L8.93171 7.6741L8.93376 7.27913L8.93427 7.18039L8.9344 7.1557L8.93443 7.14953L8.93444 7.14799L8.93444 7.1476V7.14751V7.14748L8.43445 7.14488L8.93445 7.14747V7.14488C8.93445 6.87691 8.77807 6.68619 8.63077 6.58322C8.48155 6.47892 8.30191 6.43 8.12691 6.43C5.19337 6.43 2.46062 8.41553 1.29325 11.0961Z" stroke="#514F4F"/>
</svg>
