<svg width="5" height="9" viewBox="0 0 5 9" fill="none" xmlns="http://www.w3.org/2000/svg">
<path d="M4.257 1.94038L2.42887 0.103401C2.42877 0.103296 2.42864 0.103208 2.42854 0.103085C2.29111 -0.0345871 2.0678 -0.0341476 1.93083 0.10312C1.93073 0.103225 1.9306 0.103313 1.9305 0.103436L0.102374 1.94042C-0.0345773 2.07804 -0.0340676 2.30065 0.103569 2.43762C0.241188 2.57458 0.46378 2.57406 0.600748 2.43644L1.82812 1.20309V8.64844C1.82812 8.84261 1.98552 9 2.17968 9C2.37385 9 2.53125 8.84261 2.53125 8.64844V1.20309L3.75862 2.4364C3.89559 2.57402 4.11818 2.57455 4.2558 2.43758C4.39345 2.30059 4.39393 2.07799 4.257 1.94038Z" fill="#646464"/>
</svg>
